<?xml version="1.0" encoding="UTF-8" standalone="no"?>
<!DOCTYPE svg PUBLIC "-//W3C//DTD SVG 1.1//EN" "http://www.w3.org/Graphics/SVG/1.1/DTD/svg11.dtd">
<svg width="100%" height="100%" viewBox="0 0 200 71" version="1.1" xmlns="http://www.w3.org/2000/svg" xmlns:xlink="http://www.w3.org/1999/xlink" xml:space="preserve" xmlns:serif="http://www.serif.com/" style="fill-rule:evenodd;clip-rule:evenodd;stroke-linejoin:round;stroke-miterlimit:2;">
    <g transform="matrix(0.333333,0,0,0.333333,-200,-71)">
        <g>
            <g transform="matrix(1,0,0,1,600,213)">
                <path d="M600,106.5C600,165.3 465.7,213 300,213C134.3,213 0,165.3 0,106.5C0,47.7 134.3,0 300,0C465.7,0 600,47.7 600,106.5" style="fill:rgb(227,6,19);fill-rule:nonzero;"/>
                <path d="M300,14.9C144.5,14.9 18.5,55.9 18.5,106.5C18.5,157.1 144.6,198.1 300,198.1C455.5,198.1 581.5,157.1 581.5,106.5C581.5,55.9 455.5,14.9 300,14.9M300,196.5C157.7,196.5 49.1,156.2 49.1,106.5C49.1,56.8 157.7,16.5 300,16.5C442.3,16.5 550.9,56.8 550.9,106.5C550.9,156.2 442.3,196.5 300,196.5" style="fill-rule:nonzero;"/>
            </g>
            <g transform="matrix(1,0,0,1,600,213)">
                <path d="M169.1,76.6L169.1,138.2L153.1,138.2L153.2,97.6L140.3,138.2L128.8,138.1L115.9,97.6L115.9,138.1L99.8,138.1L99.9,76.5L123.5,76.5L134.7,113.7L145.4,76.6L169.1,76.6Z" style="fill:white;fill-rule:nonzero;"/>
                <path d="M500.2,106.5C500.2,112.1 499.2,122.9 489.1,131.2C482,137 474.3,138.2 468.4,138.1C463.3,138.1 453.5,137.3 445.4,128.9C439.5,122.7 436.7,114.4 436.7,106C436.7,100.2 437.8,89.5 447.8,81.3C455,75.5 462.8,74.3 468.5,74.4C488.6,74.5 500.2,89.2 500.2,106.5M453.8,105.7C453.8,116.4 458.5,124.6 468.5,124.7C473.6,124.7 476.9,122.4 478.5,120.6C482.1,116.9 483.1,111.5 483.1,106.4C483.1,96.1 478.7,87.7 468.5,87.9C458.8,88 453.8,95.6 453.8,105.7" style="fill:white;fill-rule:nonzero;"/>
                <path d="M392.9,76.7L392.9,138.1L376.4,138.2L376.5,89.6L359.6,89.6L359.6,76.6L392.9,76.7Z" style="fill:white;fill-rule:nonzero;"/>
                <path d="M416.5,89.6L416.5,138.1L400.2,138.1L400.2,76.6L433.4,76.6L433.4,89.6L416.5,89.6Z" style="fill:white;fill-rule:nonzero;"/>
                <path d="M309.9,138.2L309.9,76.4L350.9,76.4L350.9,88.8L327.8,88.8L327.8,100.1L350.2,100.1L350.2,112.5L327.8,112.5L327.8,125.9L352.1,125.9L352.1,138.2L309.9,138.2Z" style="fill:white;fill-rule:nonzero;"/>
                <path d="M274.4,76.6C281.4,76.6 290,76.6 296.4,82C300.2,85.2 303,90.5 303,97.2C303,105 298.7,112.3 290.1,115L303,138.3L285.4,138.3L273.9,117.5L265.6,117.5L265.6,138.3L249.4,138.3L249.5,76.7L274.4,76.6ZM265.7,89.4L265.7,104.9L271.2,105C277.1,105 279.8,105 282.1,104C285.3,102.6 286.3,99.6 286.3,97.2C286.3,93.5 284.3,91.8 283.3,91.1C280.8,89.5 276.1,89.4 272,89.4L265.7,89.4Z" style="fill:white;fill-rule:nonzero;"/>
                <path d="M240.6,107C240.6,112.6 239.6,123.4 229.6,131.7C222.5,137.5 214.7,138.7 208.9,138.6C203.8,138.6 194,137.8 185.9,129.4C180,123.2 177.2,114.9 177.2,106.5C177.2,100.7 178.3,90 188.3,81.8C195.5,76 203.3,74.8 209,74.9C229,74.9 240.6,89.7 240.6,107M194.2,106.2C194.2,116.9 198.9,125.1 208.8,125.2C213.9,125.2 217.2,122.8 218.8,121.1C222.4,117.4 223.4,112 223.4,106.9C223.4,96.6 219,88.2 208.9,88.4C199.2,88.5 194.2,96.1 194.2,106.2" style="fill:white;fill-rule:nonzero;"/>
            </g>
        </g>
    </g>
</svg>
